<svg width="37" height="41" viewBox="0 0 37 41" fill="none" xmlns="http://www.w3.org/2000/svg">
<path fillRule="evenodd" clipRule="evenodd" d="M18.3333 4.00049C15.5644 4.00049 12.8576 4.82156 10.5554 6.35986C8.25308 7.89817 6.45866 10.0846 5.39902 12.6428C4.33937 15.2009 4.06208 18.0158 4.60221 20.7315C5.14233 23.4471 6.47555 25.9416 8.43331 27.8995C8.43324 27.8995 8.43337 27.8996 8.43331 27.8995L16.9208 36.385C17.2958 36.7596 17.8042 36.9701 18.3343 36.9701C18.8643 36.9701 19.3727 36.7596 19.7478 36.385L28.233 27.8997C28.233 27.8997 28.233 27.8997 28.233 27.8997C30.1909 25.9418 31.5242 23.4472 32.0643 20.7315C32.6044 18.0158 32.3272 15.2009 31.2675 12.6428C30.2079 10.0846 28.4134 7.89817 26.1112 6.35986C23.8089 4.82156 21.1022 4.00049 18.3333 4.00049ZM8.33309 3.03397C11.2932 1.05615 14.7732 0.000488281 18.3333 0.000488281C21.8933 0.000488281 25.3734 1.05615 28.3334 3.03397C31.2935 5.0118 33.6006 7.82296 34.963 11.112C36.3254 14.401 36.6819 18.0201 35.9875 21.5118C35.293 25.0034 33.5788 28.2107 31.0615 30.7281L22.5755 39.2141C21.4504 40.338 19.9245 40.9701 18.3343 40.9701C16.744 40.9701 15.2188 40.3387 14.0938 39.2148L5.60521 30.7283C3.08796 28.2109 1.37352 25.0034 0.679057 21.5118C-0.0154017 18.0201 0.341113 14.401 1.70352 11.112C3.06592 7.82296 5.37303 5.0118 8.33309 3.03397ZM12.6764 12.3431C14.1767 10.8429 16.2115 10 18.3333 10C20.455 10 22.4898 10.8429 23.9901 12.3431C25.4904 13.8434 26.3333 15.8783 26.3333 18C26.3333 20.1217 25.4904 22.1566 23.9901 23.6569C22.4898 25.1571 20.455 26 18.3333 26C16.2115 26 14.1767 25.1571 12.6764 23.6569C11.1761 22.1566 10.3333 20.1217 10.3333 18C10.3333 15.8783 11.1761 13.8434 12.6764 12.3431ZM18.3333 14C17.2724 14 16.255 14.4214 15.5048 15.1716C14.7547 15.9217 14.3333 16.9391 14.3333 18C14.3333 19.0609 14.7547 20.0783 15.5048 20.8284C16.255 21.5786 17.2724 22 18.3333 22C19.3941 22 20.4115 21.5786 21.1617 20.8284C21.9118 20.0783 22.3333 19.0609 22.3333 18C22.3333 16.9391 21.9118 15.9217 21.1617 15.1716C20.4115 14.4214 19.3941 14 18.3333 14Z" fill="#332123"/>
</svg>
