<svg width="40" height="32" viewBox="0 0 40 32" fill="none" xmlns="http://www.w3.org/2000/svg">
<path fillRule="evenodd" clipRule="evenodd" d="M6 4C5.46957 4 4.96086 4.21071 4.58579 4.58579C4.43941 4.73216 4.31807 4.89888 4.22452 5.07931L20 15.5963L35.7755 5.07931C35.6819 4.89888 35.5606 4.73216 35.4142 4.58579C35.0391 4.21071 34.5304 4 34 4H6ZM36 9.73703L21.1094 19.6641C20.4376 20.112 19.5624 20.112 18.8906 19.6641L4 9.73703V26C4 26.5304 4.21071 27.0391 4.58579 27.4142C4.96086 27.7893 5.46957 28 6 28H34C34.5304 28 35.0391 27.7893 35.4142 27.4142C35.7893 27.0391 36 26.5304 36 26V9.73703ZM1.75736 1.75736C2.88258 0.632141 4.4087 0 6 0H34C35.5913 0 37.1174 0.632141 38.2426 1.75736C39.3679 2.88258 40 4.4087 40 6V26C40 27.5913 39.3679 29.1174 38.2426 30.2426C37.1174 31.3679 35.5913 32 34 32H6C4.4087 32 2.88258 31.3679 1.75736 30.2426C0.632141 29.1174 0 27.5913 0 26V6C0 4.4087 0.632141 2.88258 1.75736 1.75736Z" fill="#332123"/>
</svg>
