<svg width="83" height="120" viewBox="0 0 83 120" fill="none" xmlns="http://www.w3.org/2000/svg">
<g opacity="0.1">
<path fillRule="evenodd" clipRule="evenodd" d="M31.5503 8.94022L38.0103 3.3582C42.3169 -0.506279 53.5143 4.21697 59.5436 8.51083C59.5436 8.51083 68.5876 3.78758 74.6169 3.3582C80.2156 2.49942 82.7996 3.3582 82.7996 3.3582L100.026 20.963C100.026 20.963 101.749 24.8275 100.888 31.2683C100.457 33.8446 99.5955 36.4209 98.7342 39.4266C100.026 41.1442 102.61 43.7205 104.764 46.2968C107.778 50.1613 107.778 50.1613 107.778 50.1613C110.793 42.8617 111.224 39.856 111.224 32.1271L118.545 38.9972C118.545 38.9972 118.545 46.7262 116.392 52.3082C114.238 57.8902 113.377 59.6078 113.377 59.6078C113.377 59.6078 116.822 67.3367 117.684 73.3481C118.545 79.7889 117.684 82.7946 117.684 82.7946L111.224 90.5236C111.224 87.0885 109.932 72.4894 100.888 58.3196C98.7342 54.8845 96.1502 51.4494 93.9969 48.8731C93.9969 48.8731 91.8435 45.438 89.2596 42.8617C86.6756 40.2854 79.3542 32.9858 79.3542 32.9858L68.5876 40.7148C68.5876 40.7148 70.3102 42.4323 74.1862 46.2968C78.0622 50.1613 86.6756 60.0372 86.6756 60.0372C88.8289 63.0429 91.4129 66.9073 93.9969 70.7718C101.318 83.6534 102.18 96.1056 102.18 99.5407C97.4422 103.835 87.1062 114.999 83.6609 117.146C81.5076 118.434 69.4489 117.146 65.5729 114.999C61.2663 112.852 61.2663 112.852 61.2663 112.852C61.2663 112.852 53.9449 115.857 47.9156 117.146C41.4556 118.434 39.733 118.004 39.733 118.004L31.5503 111.134C31.5503 111.134 43.6089 111.993 55.2369 105.981C66.8649 99.9701 78.4929 89.6648 78.4929 89.6648L88.3982 79.7889C88.3982 79.7889 83.2302 70.7718 81.0769 68.1955C64.7116 86.6591 41.4556 102.117 22.937 101.258L2.265 83.6534C2.265 83.6534 -1.18033 77.642 6.14099 61.7547C6.57166 61.3253 6.57166 60.4665 7.00233 60.0372C5.71033 57.0315 3.98766 52.7376 2.69567 48.8731C0.973001 42.0029 2.69567 37.2797 2.69567 37.2797C2.69567 37.2797 16.477 22.2512 19.9223 20.5336C23.3676 19.2455 30.2583 20.1043 33.7036 21.3924C34.9956 21.8218 36.2876 22.6806 37.149 23.11L37.5796 22.6806C44.9009 16.6692 49.6383 13.6635 49.6383 13.6635C43.1783 11.0871 38.441 10.2284 31.5503 8.94022ZM17.3383 93.5293C18.6303 89.6648 19.9223 86.2297 20.7836 82.3652L12.1703 71.6306C12.1703 71.6306 10.8783 72.9187 10.017 76.7832C9.15566 80.6477 7.43299 83.6534 10.017 86.2297C12.1703 88.806 17.3383 93.5293 17.3383 93.5293ZM39.733 52.3082C39.733 52.3082 56.0983 35.1328 69.8796 27.8332C84.0916 20.5336 91.8436 20.1043 91.8436 20.1043C91.8436 20.1043 87.9676 14.5222 84.5222 11.9459C81.0769 9.3696 77.2009 11.0871 73.3249 12.3753C69.8796 13.6635 64.2809 16.2398 54.3756 22.2512C40.1636 31.2683 32.4116 41.5736 32.4116 41.5736L39.733 52.3082ZM8.72499 38.1385C8.72499 38.1385 8.72499 40.7148 10.017 45.0086C11.309 49.3025 15.185 57.0315 22.5063 68.1955C30.2583 79.3595 40.1636 87.9473 40.1636 87.9473L50.4996 80.6477C50.4996 80.6477 42.7476 74.6363 36.2876 65.6192C29.397 56.6021 24.229 48.4437 21.645 42.4323C19.061 36.4209 17.3383 29.1214 17.3383 29.1214C14.3237 32.1271 12.1703 34.274 8.72499 38.1385ZM46.6236 60.8959L59.9743 74.2069L72.0329 60.8959L59.5436 48.4437L46.6236 60.8959ZM69.4489 107.699L71.6022 108.558C73.3249 109.417 80.2156 111.563 81.9382 111.134C83.2302 110.705 90.1209 104.264 91.4129 102.976C90.9822 102.976 81.0769 99.1113 81.0769 99.1113C77.2009 102.976 74.1862 105.552 69.4489 107.699Z" fill="#99101D"/>
</g>
</svg>
