<svg width="24" height="24" viewBox="0 0 24 24" fill="none" xmlns="http://www.w3.org/2000/svg">
<path d="M8.25019 22.6125V17.4375L4.3877 20.2875C5.47519 21.3 6.78769 22.0875 8.25019 22.6125ZM15.7502 22.6125C17.2127 22.0875 18.5252 21.3 19.6127 20.2875L15.7502 17.4V22.6125ZM1.3877 15.75C1.5002 16.125 1.6502 16.4625 1.8377 16.8375L3.3002 15.75H1.3877ZM20.7002 15.75L22.1627 16.8375C22.3127 16.5 22.4627 16.125 22.6127 15.75H20.7002Z" fill="#2A5F9E"/>
<path d="M8.81211 14.25H0.974609C1.08711 14.775 1.23711 15.2625 1.38711 15.75H3.29961L1.83711 16.8375C2.13711 17.475 2.47461 18.0375 2.88711 18.6L6.74961 15.75H8.24961V16.5L3.86211 19.725L4.38711 20.25L8.24961 17.4375V22.6125C8.73711 22.8 9.22461 22.9125 9.74961 23.025V14.25H8.81211ZM23.0246 14.25H14.2496V23.025C14.7746 22.9125 15.2621 22.7625 15.7496 22.6125V17.4375L19.6121 20.25C20.1371 19.7625 20.5871 19.2375 21.0371 18.675L17.0246 15.75H19.5746L21.8621 17.4375C21.9746 17.25 22.0871 17.025 22.1621 16.8375L20.6996 15.75H22.6121C22.7621 15.2625 22.9121 14.775 23.0246 14.25Z" fill="white"/>
<path d="M2.8877 18.6C3.1877 19.0125 3.4877 19.3875 3.8252 19.7625L8.2502 16.5375V15.7875H6.7502L2.8877 18.6ZM17.0627 15.75L21.0752 18.675C21.2252 18.4875 21.3377 18.3 21.4877 18.1125C21.5252 18.075 21.5252 18.0375 21.5627 18.0375C21.6752 17.85 21.8252 17.625 21.9377 17.4375L19.5752 15.75H17.0627Z" fill="#ED4C5C"/>
<path d="M15.7502 1.3877V6.5627L19.6127 3.7127C18.5252 2.7002 17.2127 1.9127 15.7502 1.3877ZM8.25019 1.3877C6.78769 1.9127 5.47519 2.7002 4.3877 3.7127L8.25019 6.6002V1.3877ZM22.6127 8.2502C22.5002 7.8752 22.3502 7.5377 22.1627 7.1627L20.7002 8.2502H22.6127ZM3.3002 8.2502L1.8377 7.1627C1.6877 7.5377 1.5377 7.8752 1.3877 8.2502H3.3002Z" fill="#2A5F9E"/>
<path d="M15.1871 9.7501H22.9871C22.8746 9.2251 22.7246 8.7376 22.5746 8.2501H20.6621L22.1246 7.1626C21.8246 6.5251 21.4871 5.9626 21.0746 5.4001L17.2496 8.2501H15.7496V7.5001L20.1371 4.2751L19.6121 3.7501L15.7496 6.5626V1.3876C15.2621 1.2001 14.7746 1.0876 14.2496 0.975098V9.7501H15.1871ZM0.974609 9.7501H9.74961V0.975098C9.22461 1.0876 8.73711 1.2376 8.24961 1.3876V6.5626L4.38711 3.7501C3.86211 4.2376 3.41211 4.7626 2.96211 5.3251L6.97461 8.2501H4.42461L2.13711 6.5626C2.02461 6.7501 1.91211 6.9751 1.83711 7.1626L3.29961 8.2501H1.38711C1.23711 8.7376 1.08711 9.2251 0.974609 9.7501Z" fill="white"/>
<path d="M21.1121 5.3998C20.8121 4.9873 20.5121 4.6123 20.1746 4.2373L15.7496 7.4623V8.2123H17.2496L21.1121 5.3998ZM6.93711 8.2498L2.96211 5.3248C2.81211 5.5123 2.69961 5.6998 2.54961 5.8873C2.51211 5.9248 2.51211 5.9623 2.47461 5.9623C2.36211 6.1498 2.21211 6.3748 2.09961 6.5623L4.38711 8.2498H6.93711Z" fill="#ED4C5C"/>
<path d="M23.025 9.75H14.25V0.975C13.5375 0.825 12.7875 0.75 12 0.75C10.8188 0.75 10.4625 0.825 9.75 0.975V9.75H0.975C0.825 10.4625 0.75 11.2125 0.75 12C0.75 13.1812 0.825 13.5375 0.975 14.25H9.75V23.025C10.4625 23.175 11.2125 23.25 12 23.25C13.1812 23.25 13.5375 23.175 14.25 23.025V14.25H23.025C23.175 13.5375 23.25 12.7875 23.25 12C23.25 10.8188 23.175 10.4625 23.025 9.75Z" fill="#ED4C5C"/>
</svg>
