<svg width="65" height="64" viewBox="0 0 65 64" fill="none" xmlns="http://www.w3.org/2000/svg">
<path fillRule="evenodd" clipRule="evenodd" d="M21.0532 22.2779C21.0532 22.514 21.0532 22.7502 21.2901 22.7502C21.527 22.7502 21.527 22.7502 21.7638 22.514C21.7638 22.514 21.7638 22.514 21.7638 22.2779C21.7638 22.0417 21.7638 21.8055 21.527 21.8055C21.527 21.8055 21.2901 21.8055 21.2901 22.0417L21.0532 22.2779Z" fill="#FCC46A"/>
<path fillRule="evenodd" clipRule="evenodd" d="M41.8968 6.21884C41.6599 6.45501 42.3705 6.69117 43.0811 6.92733C44.5023 7.39966 44.5023 7.39966 44.0286 8.10814C43.5548 8.81663 43.5548 8.81663 42.6074 8.58047C41.6599 8.34431 41.8968 7.87198 42.8442 8.10814C43.318 8.10814 43.5548 8.10814 43.5548 7.87198C43.5548 7.63582 43.0811 7.39966 42.6074 7.16349C41.6599 7.16349 41.423 7.16349 40.9493 8.10814C40.4756 9.05279 40.4756 9.05279 42.1336 9.52512C42.6074 9.76128 43.318 9.99744 43.7917 9.99744C44.2654 9.52512 44.7392 9.05279 44.976 8.58047C45.2129 8.10814 45.4498 7.63582 45.9235 7.16349C45.2129 6.92733 44.7392 6.69117 44.0286 6.45501C43.0811 5.98268 42.1336 5.98268 41.8968 6.21884Z" fill="#FCC46A"/>
<path fillRule="evenodd" clipRule="evenodd" d="M32.1855 11.1783C32.1855 11.4145 32.6592 11.6506 33.3698 11.8868C34.791 12.123 34.791 12.123 34.3173 13.0676C34.0804 14.0122 33.8436 14.0122 33.133 13.7761C32.1855 13.5399 32.4224 13.0676 33.3698 13.3038C33.6067 13.3038 33.8436 13.3038 33.8436 13.0676C33.8436 12.8314 33.3698 12.5953 32.8961 12.5953C31.9486 12.5953 31.9486 12.5953 31.4749 13.5399C31.238 14.4846 31.238 14.4846 32.8961 14.7207C33.3698 14.9569 34.0804 14.9569 34.5542 15.1931C34.791 14.7207 35.0279 14.0122 35.0279 13.5399C35.2648 12.5953 35.5016 11.8868 35.7385 11.4145C35.2648 11.1783 34.5542 11.1783 34.0804 10.9421C33.133 10.9421 32.1855 10.9421 32.1855 11.1783Z" fill="#FCC46A"/>
<path fillRule="evenodd" clipRule="evenodd" d="M37.8708 9.99739C37.634 10.2336 37.8708 10.4697 38.1077 10.4697C38.3446 10.4697 38.3445 10.4697 38.5814 10.4697C38.5814 10.4697 38.5814 10.4697 38.8183 10.2336C39.0551 9.99739 38.8183 9.76123 38.5814 9.76123C38.3445 9.76123 38.3446 9.76123 37.8708 9.99739Z" fill="#FCC46A"/>
<path fillRule="evenodd" clipRule="evenodd" d="M23.8954 17.3185C23.8954 17.5547 24.3692 17.7908 25.0798 17.7908C26.2641 18.027 26.2641 18.027 26.0272 18.7355C25.7904 19.6801 25.7904 19.6801 24.8429 19.444C23.8954 19.444 24.1323 18.7355 25.0798 18.9717C25.3166 18.9717 25.5535 18.7355 25.5535 18.4993C25.5535 18.2632 25.0798 18.027 24.606 18.027C23.6586 18.027 23.6586 18.027 23.4217 18.9717C23.1848 19.9163 23.1848 19.9163 24.8429 20.1525C25.3166 20.1525 25.7904 20.1525 26.501 20.3886C26.7378 19.9163 26.7378 19.2078 26.9747 18.7355C27.2115 18.2632 27.2116 17.5547 27.4484 17.0824C26.9747 17.0824 26.501 17.0824 25.7904 16.8462C24.606 16.8462 23.8954 17.0824 23.8954 17.3185Z" fill="#FCC46A"/>
<path fillRule="evenodd" clipRule="evenodd" d="M28.8694 15.4292C28.8694 15.6653 28.8694 15.9015 29.1063 15.9015C29.3431 15.9015 29.3431 15.9015 29.58 15.9015C29.58 15.9015 29.58 15.9015 29.8169 15.6653C29.8169 15.4292 29.8168 15.193 29.58 15.193C29.3431 15.193 29.3431 15.193 28.8694 15.4292C29.1063 15.4292 29.1063 15.193 28.8694 15.4292Z" fill="#FCC46A"/>
<path fillRule="evenodd" clipRule="evenodd" d="M5.18262 43.7686C5.18262 44.0048 5.89322 44.0048 6.60382 43.7686C7.78815 43.2963 7.78815 43.2963 8.02501 44.2409C8.26188 45.1856 8.02501 45.1856 7.31441 45.4218C6.36695 45.6579 6.36695 45.1856 7.31441 44.9494C7.55128 44.9494 7.78815 44.7133 7.55128 44.4771C7.55128 44.2409 7.07755 44.2409 6.60382 44.4771C5.65635 44.9494 5.65635 44.9494 5.89322 45.8941C6.13008 46.8387 6.13008 46.8387 7.55128 46.3664C8.02501 46.1302 8.49875 46.1302 8.97248 45.8941C8.97248 45.4218 8.73561 44.7133 8.73561 44.0048C8.49875 43.5325 8.49875 42.824 8.49875 42.1155C7.78815 42.3516 7.07755 42.5878 6.60382 42.824C5.89322 43.0601 5.18262 43.5325 5.18262 43.7686Z" fill="#FCC46A"/>
<path fillRule="evenodd" clipRule="evenodd" d="M35.9753 11.4144C36.4491 11.6506 37.1597 11.6506 37.6334 11.8868C38.1071 12.1229 38.8177 12.1229 39.2915 12.3591C39.5283 11.8868 39.7652 11.4144 40.0021 10.9421C40.2389 10.2336 40.4758 9.52513 40.7127 9.0528C40.0021 8.81664 39.5283 8.81664 38.8177 8.58048C38.1071 8.34432 37.6334 8.34432 36.9228 8.10815C36.6859 8.58048 36.4491 9.28897 36.2122 9.76129C36.2122 10.2336 35.9753 10.9421 35.9753 11.4144ZM38.8177 11.1783C38.5809 11.4144 38.344 11.1783 37.8703 11.1783C36.9228 10.9421 36.9228 10.9421 37.3965 9.99745C37.3965 9.52513 37.6334 9.28897 37.8703 9.28897C38.1071 9.28897 38.344 9.28897 38.8177 9.28897C39.7652 9.52513 39.7652 9.52513 39.2915 10.4698C39.0546 10.7059 38.8177 10.9421 38.8177 11.1783Z" fill="#EE8900"/>
<path fillRule="evenodd" clipRule="evenodd" d="M27.2119 17.0823C27.6856 17.0823 28.1594 17.3184 28.87 17.3184C29.3437 17.3184 30.0543 17.5546 30.528 17.5546C30.7649 16.8461 30.7649 16.3738 31.0018 15.9015C31.2386 15.4291 31.2386 14.7206 31.4755 14.2483C31.0018 14.2483 30.2912 14.0122 29.8174 14.0122C29.3437 14.0122 28.6331 13.776 28.1594 13.776C27.9225 14.2483 27.9225 14.9568 27.6856 15.4291C27.4488 15.9015 27.4488 16.6099 27.2119 17.0823ZM29.8174 16.3738C29.8174 16.6099 29.5806 16.6099 29.1068 16.6099C28.3962 16.3738 28.1594 16.3738 28.3962 15.6653C28.3962 15.193 28.6331 14.9568 28.6331 14.9568C28.87 14.9568 29.1068 14.9568 29.3437 14.9568C30.0543 15.193 30.2912 15.193 30.0543 16.1376C30.0543 16.1376 30.0543 16.3738 29.8174 16.3738Z" fill="#EE8900"/>
<path fillRule="evenodd" clipRule="evenodd" d="M19.8685 24.1671C20.3422 24.1671 20.8159 23.931 21.2897 23.931C21.7634 23.931 22.2371 23.6948 22.7109 23.6948C22.7109 23.2225 22.7109 22.514 22.9477 22.0417C22.9477 21.5694 23.1846 20.8609 23.1846 20.3885C22.7109 20.3885 22.2371 20.6247 21.5265 20.6247C21.0528 20.6247 20.5791 20.8609 19.8685 20.8609C19.8685 21.3332 19.8685 22.0417 19.6316 22.514C19.8685 23.2225 19.8685 23.6948 19.8685 24.1671ZM22.2371 22.9863C22.2371 23.2225 22.0003 23.2225 21.5265 23.2225C20.8159 23.2225 20.8159 23.2225 20.8159 22.2778C20.8159 21.8055 20.8159 21.5694 21.0528 21.5694C21.0528 21.5694 21.2897 21.3332 21.5265 21.3332C22.2371 21.3332 22.474 21.3332 22.2371 22.2778C22.2371 22.7502 22.2371 22.7502 22.2371 22.9863Z" fill="#EE8900"/>
<path fillRule="evenodd" clipRule="evenodd" d="M16.5524 3.85727L20.1054 0.787156C22.474 -1.3383 28.6326 1.25948 31.9487 3.6211C31.9487 3.6211 36.9229 1.02332 40.239 0.787156C43.3183 0.314832 44.7395 0.787156 44.7395 0.787156L54.2141 10.4698C54.2141 10.4698 55.1616 12.5953 54.6879 16.1377C54.451 17.5547 53.9773 18.9717 53.5035 20.6248C54.2141 21.5694 55.6353 22.9864 56.8196 24.4034C58.4777 26.5289 58.4777 26.5289 58.4777 26.5289C60.1358 22.5141 60.3726 20.861 60.3726 16.61L64.3994 20.3886C64.3994 20.3886 64.3994 24.6396 63.215 27.7097C62.0307 30.7798 61.557 31.7244 61.557 31.7244C61.557 31.7244 63.4519 35.9753 63.9256 39.2816C64.3994 42.8241 63.9256 44.4772 63.9256 44.4772L60.3726 48.7281C60.3726 46.8388 59.662 38.8093 54.6879 31.0159C53.5035 29.1266 52.0823 27.2373 50.898 25.8204C50.898 25.8204 49.7137 23.9311 48.2925 22.5141C46.8713 21.0971 42.8445 17.0824 42.8445 17.0824L36.9229 21.3333C36.9229 21.3333 37.8703 22.2779 40.0021 24.4034C42.1339 26.5289 46.8713 31.9606 46.8713 31.9606C48.0556 33.6137 49.4768 35.7392 50.898 37.8646C54.9247 44.9495 55.3984 51.7982 55.3984 53.6875C52.7929 56.0491 47.1081 62.1894 45.2132 63.3702C44.0289 64.0787 37.3966 63.3702 35.2648 62.1894C32.8961 61.0086 32.8961 61.0086 32.8961 61.0086C32.8961 61.0086 28.8694 62.6617 25.5533 63.3702C22.0003 64.0787 21.0528 63.8425 21.0528 63.8425L16.5524 60.0639C16.5524 60.0639 23.1846 60.5362 29.58 57.23C35.9754 53.9237 42.3708 48.2558 42.3708 48.2558L47.8187 42.8241C47.8187 42.8241 44.9763 37.8646 43.792 36.4477C34.7911 46.6027 22.0003 55.1045 11.815 54.6322L0.445457 44.9495C0.445457 44.9495 -1.44947 41.6432 2.57725 32.9052C2.81412 32.6691 2.81412 32.1967 3.05099 31.9606C2.34039 30.3075 1.39292 27.9458 0.682323 25.8204C-0.265142 22.0418 0.682323 19.444 0.682323 19.444C0.682323 19.444 8.26205 11.1783 10.157 10.2337C12.0519 9.52516 15.8418 9.99749 17.7367 10.706C18.4473 10.9421 19.1579 11.4145 19.6316 11.6506L19.8685 11.4145C23.8952 8.10819 26.5008 6.45505 26.5008 6.45505C22.9478 5.03808 20.3422 4.56575 16.5524 3.85727ZM8.73578 50.3812C9.44638 48.2558 10.157 46.3665 10.6307 44.241L5.89338 38.337C5.89338 38.337 5.18278 39.0455 4.70905 41.1709C4.23532 43.2964 3.28785 44.9495 4.70905 46.3665C5.89338 47.7835 8.73578 50.3812 8.73578 50.3812ZM21.0528 27.7097C21.0528 27.7097 30.0538 18.2632 37.6335 14.2484C45.4501 10.2336 49.7137 9.99749 49.7137 9.99749C49.7137 9.99749 47.5819 6.92738 45.6869 5.5104C43.792 4.09343 41.6602 5.03808 39.5284 5.74657C37.6335 6.45505 34.5542 7.87203 29.1063 11.1783C21.2897 16.1377 17.0261 21.8056 17.0261 21.8056L21.0528 27.7097ZM3.99845 19.9163C3.99845 19.9163 3.99845 21.3333 4.70905 23.6949C5.41965 26.0565 7.55145 30.3075 11.5782 36.4477C15.8418 42.5879 21.2897 47.3111 21.2897 47.3111L26.9745 43.2964C26.9745 43.2964 22.7109 39.9901 19.1579 35.0307C15.368 30.0713 12.5256 25.5842 11.1044 22.2779C9.68324 18.9717 8.73578 14.9569 8.73578 14.9569C7.07771 16.61 5.89338 17.7908 3.99845 19.9163ZM24.8427 32.4329L32.1856 39.7539L38.8178 32.4329L31.9487 25.5842L24.8427 32.4329ZM37.3966 58.1746L38.5809 58.6469C39.5284 59.1193 43.3183 60.3001 44.2657 60.0639C44.9763 59.8277 48.7662 56.2853 49.4768 55.5768C49.2399 55.5768 43.792 53.4514 43.792 53.4514C41.6602 55.5768 40.0021 56.9938 37.3966 58.1746Z" fill="#99101D"/>
</svg>
