<svg width="24" height="24" viewBox="0 0 24 24" fill="none" xmlns="http://www.w3.org/2000/svg">
<path fillRule="evenodd" clipRule="evenodd" d="M7 4C6.73478 4 6.48043 4.10536 6.29289 4.29289C6.10536 4.48043 6 4.73478 6 5V12C6 12.5523 5.55228 13 5 13C4.44772 13 4 12.5523 4 12V5C4 4.20435 4.31607 3.44129 4.87868 2.87868C5.44129 2.31607 6.20435 2 7 2H14C14.2652 2 14.5196 2.10536 14.7071 2.29289L19.7071 7.29289C19.8946 7.48043 20 7.73478 20 8V12C20 12.5523 19.5523 13 19 13C18.4477 13 18 12.5523 18 12V9H15C14.4696 9 13.9609 8.78929 13.5858 8.41421C13.2107 8.03914 13 7.53043 13 7V4H7ZM15 5.41421L16.5858 7H15V5.41421ZM4 15C4 14.4477 4.44772 14 5 14H6.5C7.16304 14 7.79893 14.2634 8.26777 14.7322C8.73661 15.2011 9 15.837 9 16.5C9 17.163 8.73661 17.7989 8.26777 18.2678C7.79893 18.7366 7.16304 19 6.5 19H6V21C6 21.5523 5.55228 22 5 22C4.44772 22 4 21.5523 4 21V15ZM6 17H6.5C6.63261 17 6.75978 16.9473 6.85355 16.8536C6.94732 16.7598 7 16.6326 7 16.5C7 16.3674 6.94732 16.2402 6.85355 16.1464C6.75979 16.0527 6.63261 16 6.5 16H6V17ZM10 15C10 14.4477 10.4477 14 11 14H12C12.7957 14 13.5587 14.3161 14.1213 14.8787C14.6839 15.4413 15 16.2043 15 17V19C15 19.7957 14.6839 20.5587 14.1213 21.1213C13.5587 21.6839 12.7957 22 12 22H11C10.4477 22 10 21.5523 10 21V15ZM12 16V20C12.2652 20 12.5196 19.8946 12.7071 19.7071C12.8946 19.5196 13 19.2652 13 19V17C13 16.7348 12.8946 16.4804 12.7071 16.2929C12.5196 16.1054 12.2652 16 12 16ZM16 15C16 14.4477 16.4477 14 17 14H20C20.5523 14 21 14.4477 21 15C21 15.5523 20.5523 16 20 16H18V17H19C19.5523 17 20 17.4477 20 18C20 18.5523 19.5523 19 19 19H18V21C18 21.5523 17.5523 22 17 22C16.4477 22 16 21.5523 16 21V15Z" fill="#26292E"/>
</svg>
