<svg width="29" height="40" viewBox="0 0 29 40" fill="none" xmlns="http://www.w3.org/2000/svg">
<path fillRule="evenodd" clipRule="evenodd" d="M6.6665 4C6.13607 4 5.62736 4.21071 5.25229 4.58579C4.87722 4.96086 4.6665 5.46957 4.6665 6V34C4.6665 34.5304 4.87722 35.0391 5.25229 35.4142C5.62736 35.7893 6.13607 36 6.6665 36H22.6665C23.1969 36 23.7056 35.7893 24.0807 35.4142C24.4558 35.0391 24.6665 34.5304 24.6665 34V6C24.6665 5.46957 24.4558 4.96086 24.0807 4.58579C23.7056 4.21071 23.1969 4 22.6665 4H18.6665C18.6665 5.10457 17.7711 6 16.6665 6H12.6665C11.5619 6 10.6665 5.10457 10.6665 4H6.6665ZM2.42386 1.75736C3.54908 0.632141 5.07521 0 6.6665 0H22.6665C24.2578 0 25.7839 0.632141 26.9091 1.75736C28.0344 2.88258 28.6665 4.4087 28.6665 6V34C28.6665 35.5913 28.0344 37.1174 26.9091 38.2426C25.7839 39.3679 24.2578 40 22.6665 40H6.6665C5.0752 40 3.54908 39.3679 2.42386 38.2426C1.29864 37.1174 0.666504 35.5913 0.666504 34V6C0.666504 4.4087 1.29864 2.88258 2.42386 1.75736ZM14.6665 28C15.7711 28 16.6665 28.8954 16.6665 30V30.02C16.6665 31.1246 15.7711 32.02 14.6665 32.02C13.5619 32.02 12.6665 31.1246 12.6665 30.02V30C12.6665 28.8954 13.5619 28 14.6665 28Z" fill="#332123"/>
</svg>
