<svg width="24" height="24" viewBox="0 0 24 24" fill="none" xmlns="http://www.w3.org/2000/svg">
<g clip-path="url(#clip0_70_686)">
<path d="M18 2.475C16.2375 1.3875 14.2125 0.75 12 0.75V2.475H18Z" fill="#ED4C5C"/>
<path d="M12 4.20004H20.1C19.4625 3.56254 18.75 2.96254 18 2.47504H12V4.20004Z" fill="white"/>
<path d="M12 5.92507H21.4875C21.075 5.28757 20.625 4.72507 20.1375 4.20007H12V5.92507Z" fill="#ED4C5C"/>
<path d="M12 7.64993H22.3875C22.125 7.04993 21.825 6.44993 21.4875 5.92493H12V7.64993Z" fill="white"/>
<path d="M12 9.37496H22.95C22.8 8.77496 22.6125 8.21246 22.3875 7.64996H12V9.37496Z" fill="#ED4C5C"/>
<path d="M12 11.1375H23.2125C23.175 10.5375 23.0625 9.97504 22.95 9.41254H12V11.1375Z" fill="white"/>
<path d="M23.2125 11.1376H12V12.0001H0.75C0.75 12.3001 0.75 12.5626 0.7875 12.8626H23.2125C23.25 12.5626 23.25 12.3001 23.25 12.0001C23.25 11.7001 23.25 11.4001 23.2125 11.1376Z" fill="#ED4C5C"/>
<path d="M1.04961 14.5874H22.9496C23.0996 14.0249 23.1746 13.4624 23.2121 12.8624H0.787109C0.824609 13.4249 0.899609 14.0249 1.04961 14.5874Z" fill="white"/>
<path d="M1.6123 16.3125H22.3873C22.6123 15.75 22.7998 15.1875 22.9498 14.5875H1.0498C1.1998 15.1875 1.3873 15.75 1.6123 16.3125Z" fill="#ED4C5C"/>
<path d="M2.5123 18.0375H21.4873C21.8248 17.475 22.1248 16.9125 22.3873 16.3125H1.6123C1.8748 16.9125 2.1748 17.475 2.5123 18.0375Z" fill="white"/>
<path d="M3.8627 19.7625H20.1377C20.6252 19.2375 21.1127 18.6375 21.4877 18.0375H2.5127C2.8877 18.675 3.3752 19.2375 3.8627 19.7625Z" fill="#ED4C5C"/>
<path d="M5.9623 21.4876H18.0373C18.8248 21.0001 19.4998 20.4001 20.1373 19.7626H3.8623C4.4998 20.4376 5.2123 21.0001 5.9623 21.4876Z" fill="white"/>
<path d="M12.0004 23.2499C14.2129 23.2499 16.2754 22.6124 18.0379 21.4874H5.96289C7.72539 22.6124 9.78789 23.2499 12.0004 23.2499Z" fill="#ED4C5C"/>
<path d="M6 2.475C5.2125 2.9625 4.5 3.5625 3.8625 4.2C3.3375 4.725 2.8875 5.325 2.5125 5.925C2.175 6.4875 1.8375 7.05 1.6125 7.65C1.3875 8.2125 1.2 8.775 1.05 9.375C0.9 9.9375 0.825 10.5 0.7875 11.1C0.75 11.4 0.75 11.7 0.75 12H12V0.75C9.7875 0.75 7.7625 1.3875 6 2.475Z" fill="#428BC1"/>
<path d="M9.37539 1.125L9.56289 1.6875H10.1254L9.67539 2.0625L9.82539 2.625L9.37539 2.2875L8.92539 2.625L9.07539 2.0625L8.62539 1.6875H9.18789L9.37539 1.125ZM10.8754 3.375L11.0629 3.9375H11.6254L11.1754 4.3125L11.3254 4.875L10.8754 4.5375L10.4254 4.875L10.5754 4.3125L10.1254 3.9375H10.6879L10.8754 3.375ZM7.87539 3.375L8.06289 3.9375H8.62539L8.17539 4.3125L8.32539 4.875L7.87539 4.5375L7.42539 4.875L7.57539 4.3125L7.12539 3.9375H7.68789L7.87539 3.375ZM9.37539 5.625L9.56289 6.1875H10.1254L9.67539 6.5625L9.82539 7.125L9.37539 6.7875L8.92539 7.125L9.07539 6.5625L8.62539 6.1875H9.18789L9.37539 5.625ZM6.37539 5.625L6.56289 6.1875H7.12539L6.67539 6.5625L6.82539 7.125L6.37539 6.7875L5.92539 7.125L6.07539 6.5625L5.62539 6.1875H6.18789L6.37539 5.625ZM3.37539 5.625L3.56289 6.1875H4.12539L3.67539 6.5625L3.82539 7.125L3.37539 6.7875L2.92539 7.125L3.07539 6.5625L2.62539 6.1875H3.18789L3.37539 5.625ZM10.8754 7.875L11.0629 8.4375H11.6254L11.1754 8.8125L11.3254 9.375L10.8754 9.0375L10.4254 9.375L10.5754 8.8125L10.1254 8.4375H10.6879L10.8754 7.875ZM7.87539 7.875L8.06289 8.4375H8.62539L8.17539 8.8125L8.32539 9.375L7.87539 9.0375L7.42539 9.375L7.57539 8.8125L7.12539 8.4375H7.68789L7.87539 7.875ZM4.87539 7.875L5.06289 8.4375H5.62539L5.17539 8.8125L5.32539 9.375L4.87539 9.0375L4.42539 9.375L4.57539 8.8125L4.12539 8.4375H4.68789L4.87539 7.875ZM9.37539 10.125L9.56289 10.6875H10.1254L9.67539 11.0625L9.82539 11.625L9.37539 11.2875L8.92539 11.625L9.07539 11.0625L8.62539 10.6875H9.18789L9.37539 10.125ZM6.37539 10.125L6.56289 10.6875H7.12539L6.67539 11.0625L6.82539 11.625L6.37539 11.2875L5.92539 11.625L6.07539 11.0625L5.62539 10.6875H6.18789L6.37539 10.125ZM3.37539 10.125L3.56289 10.6875H4.12539L3.67539 11.0625L3.82539 11.625L3.37539 11.2875L2.92539 11.625L3.07539 11.0625L2.62539 10.6875H3.18789L3.37539 10.125ZM4.42539 4.875L4.87539 4.5375L5.32539 4.875L5.13789 4.3125L5.58789 3.9375H5.02539L4.87539 3.375L4.68789 3.9375H4.16289L4.61289 4.275L4.42539 4.875ZM1.42539 9.375L1.87539 9.0375L2.32539 9.375L2.13789 8.8125L2.58789 8.4375H2.06289L1.87539 7.875L1.68789 8.4375H1.31289C1.31289 8.475 1.27539 8.5125 1.27539 8.55L1.57539 8.775L1.42539 9.375Z" fill="white"/>
</g>
<defs>
<clipPath id="clip0_70_686">
<rect width="24" height="24" fill="white"/>
</clipPath>
</defs>
</svg>
