<svg width="474" height="118" viewBox="0 0 474 118" fill="none" xmlns="http://www.w3.org/2000/svg">
<g clip-path="url(#clip0_93_253)">
<path fill-rule="evenodd" clip-rule="evenodd" d="M165.122 47.7016H155.948V16.4807H154.201C152.017 16.4807 149.833 16.9143 148.085 18.2152C146.338 19.5161 145.464 21.2506 145.027 23.4187L145.464 13.4453H175.169L175.606 23.4187C175.169 21.2506 174.295 19.5161 172.548 18.2152C170.801 16.9143 169.053 16.4807 166.432 16.4807H164.685V47.7016H165.122Z" fill="#FCC46A"/>
<path fill-rule="evenodd" clip-rule="evenodd" d="M190.023 39.8995V24.7227H197.886V42.0676C197.886 42.9349 198.323 43.8021 198.76 44.2358C199.196 44.6694 200.07 45.103 201.381 45.103C202.691 45.103 203.128 45.103 204.002 44.6694C203.565 45.5366 202.691 46.4039 201.381 47.2711C200.07 47.7047 198.76 48.1384 197.012 48.1384C193.954 48.1384 192.207 46.8375 190.897 44.6694C189.149 46.8375 186.528 48.1384 182.597 48.1384C180.412 48.1384 178.665 47.7047 176.918 46.4039C175.607 45.103 174.734 43.3685 174.734 40.7668V28.6253C174.734 26.4572 173.86 25.1563 171.676 24.7227H182.597V40.3331C182.597 43.3685 183.907 44.6694 186.528 44.6694C187.839 44.6694 188.712 44.2358 189.149 43.3685C190.023 42.5013 190.023 41.634 190.023 39.8995Z" fill="#FCC46A"/>
<path fill-rule="evenodd" clip-rule="evenodd" d="M210.117 47.7048H202.691V28.1917C202.691 26.0236 201.817 24.7227 199.633 24.2891H210.117V28.1917C210.554 26.8908 211.427 26.0236 212.738 25.1563C213.612 24.2891 214.922 23.8555 216.233 23.8555C216.669 23.8555 217.106 23.8555 217.543 23.8555C217.98 23.8555 218.417 23.8555 218.417 24.2891C218.854 24.2891 218.854 24.7227 219.29 24.7227L218.417 31.6607C217.106 29.4926 215.796 28.1917 214.048 28.1917C213.175 28.1917 211.864 28.6253 211.427 29.9262C210.554 30.7935 210.554 32.0943 210.554 33.3952V47.7048H210.117Z" fill="#FCC46A"/>
<path fill-rule="evenodd" clip-rule="evenodd" d="M247.684 44.6661C246.81 46.8343 244.189 48.1351 241.131 48.1351C239.384 48.1351 238.074 47.7015 236.763 47.2679C235.889 46.4006 234.579 45.5334 233.705 44.2325L229.774 37.7282L228.026 39.029V47.7015H220.163V19.0823C220.163 16.9142 219.29 15.6133 217.105 15.1797H228.026V35.1264L230.647 32.9583L234.142 29.4893C235.016 28.1884 235.889 27.3212 235.889 26.8875C235.889 26.4539 235.889 26.0203 235.453 25.5867C235.016 25.153 234.579 25.153 234.579 25.153C234.142 25.153 234.142 25.153 233.705 24.7194H243.752L235.889 32.9583L242.005 42.0644C243.316 44.2325 245.063 45.0998 246.81 45.0998C246.81 45.0998 247.247 45.0998 247.684 44.6661Z" fill="#FCC46A"/>
<path fill-rule="evenodd" clip-rule="evenodd" d="M275.641 42.0676V32.0943C275.641 29.0589 274.767 27.758 272.583 27.758C271.273 27.758 270.399 28.1917 269.525 29.0589C268.651 29.9261 268.215 31.227 268.215 32.9615V47.7047H260.352V32.0943C260.352 29.0589 259.478 27.758 257.294 27.758C255.983 27.758 255.11 28.1917 254.236 29.0589C253.799 29.9261 253.362 31.227 253.362 32.9615V47.7047H245.499V28.6253C245.499 26.4572 244.626 25.1563 242.441 24.7227H253.362V27.758C255.11 25.5899 257.731 24.7227 261.225 24.7227C264.72 24.7227 266.904 26.0235 267.778 28.6253C269.962 26.0235 272.583 24.7227 276.078 24.7227C278.262 24.7227 280.009 25.1563 281.32 26.4572C282.63 27.758 283.067 29.4925 283.067 31.6606V42.0676C283.067 42.9349 283.504 43.8021 283.941 44.2358C284.378 44.6694 285.251 45.103 286.562 45.103C287.872 45.103 288.309 45.103 289.183 44.6694C288.746 45.5366 287.872 46.4039 286.562 47.2711C285.251 47.7047 283.941 48.1384 282.193 48.1384C280.009 48.1384 278.262 47.7047 277.388 46.4039C276.515 45.5366 275.641 43.8021 275.641 42.0676Z" fill="#FCC46A"/>
<path fill-rule="evenodd" clip-rule="evenodd" d="M309.718 42.0677C309.281 42.9349 308.844 43.8022 308.407 44.2358C306.223 46.8375 302.729 48.572 297.923 48.572C294.429 48.572 291.371 47.7048 289.187 45.5367C287.003 43.3685 286.129 40.7668 286.129 36.8642C286.129 32.9615 287.439 29.9262 290.06 27.7581C292.681 25.1563 295.739 24.2891 299.671 24.2891C300.544 24.2891 301.855 24.2891 302.729 24.7227C303.602 24.7227 304.913 25.1563 305.786 25.5899C306.66 26.0236 307.534 26.4572 307.971 27.3244C308.407 28.1917 308.844 29.0589 308.844 30.3598C308.844 31.6607 308.407 32.9615 307.534 34.2624C306.66 35.5633 305.35 35.9969 303.602 36.8642C301.855 37.2978 300.544 37.7314 299.234 38.165C297.923 38.5987 296.613 38.5987 294.866 39.0323C295.302 41.2004 295.739 42.9349 297.05 43.8022C298.36 45.103 300.108 45.5367 302.292 45.5367C305.35 44.6694 307.534 43.8022 309.718 42.0677ZM294.866 36.4305C296.176 36.4305 297.923 35.9969 299.234 35.5633C300.108 34.696 300.981 34.2624 301.418 33.3952C301.855 32.5279 302.292 31.2271 302.292 29.9262C302.292 29.0589 301.855 28.1917 301.418 27.3244C300.981 26.4572 300.108 26.0236 299.234 26.0236C298.36 26.0236 297.487 26.4572 297.05 26.8908C296.613 27.3244 295.739 28.1917 295.739 29.4926C295.302 30.3598 295.302 31.6607 295.302 32.5279C295.302 33.3952 295.302 34.2624 295.302 35.1297C294.866 35.5633 294.866 35.9969 294.866 36.4305Z" fill="#FCC46A"/>
<path fill-rule="evenodd" clip-rule="evenodd" d="M327.186 42.0676V32.0943C327.186 29.0589 325.876 27.758 323.692 27.758C322.381 27.758 321.507 28.1917 320.634 29.0589C319.76 29.9261 319.323 31.227 319.323 32.9615V47.7047H311.46V28.6253C311.46 26.4572 310.587 25.1563 308.402 24.7227H319.323V27.758C321.507 25.5899 323.692 24.7227 327.186 24.7227C329.37 24.7227 331.118 25.1563 332.865 26.4572C334.176 27.758 335.049 29.4925 335.049 31.6606V42.0676C335.049 42.9349 335.486 43.8021 335.923 44.2358C336.36 44.6694 337.233 45.103 338.544 45.103C339.854 45.103 340.291 45.103 341.165 44.6694C340.728 45.5366 339.854 46.4039 338.544 47.2711C337.233 47.7047 335.923 48.1384 334.176 48.1384C331.991 48.1384 330.244 47.7047 329.37 46.4039C328.06 45.5366 327.186 43.8021 327.186 42.0676Z" fill="#FCC46A"/>
<path fill-rule="evenodd" clip-rule="evenodd" d="M357.766 47.7016H348.593V16.4807H346.845C344.661 16.4807 342.477 16.9143 340.73 18.2152C338.982 19.5161 338.109 21.2506 337.672 23.4187L338.109 13.4453H367.813L368.25 23.4187C367.813 21.2506 366.94 19.5161 365.192 18.2152C363.445 16.9143 361.698 16.4807 359.077 16.4807H357.329V47.7016H357.766Z" fill="#FCC46A"/>
<path fill-rule="evenodd" clip-rule="evenodd" d="M389.655 42.0677C389.219 42.9349 388.782 43.8022 388.345 44.2358C386.161 46.8375 382.666 48.572 377.861 48.572C374.366 48.572 371.308 47.7048 369.124 45.5367C366.94 43.3685 366.066 40.7668 366.066 36.8642C366.066 32.9615 367.377 29.9262 369.998 27.7581C372.619 25.1563 375.677 24.2891 379.608 24.2891C380.482 24.2891 381.792 24.2891 382.666 24.7227C383.54 24.7227 384.85 25.1563 385.724 25.5899C386.598 26.0236 387.471 26.4572 387.908 27.3244C388.782 27.7581 388.782 28.6253 388.782 29.9262C388.782 31.2271 388.345 32.5279 387.471 33.8288C386.598 34.696 385.287 35.5633 383.54 36.4305C381.792 36.8642 380.482 37.2978 379.171 37.7314C377.861 38.165 376.55 38.165 374.803 38.5987C375.24 40.7668 375.677 42.5013 376.987 43.3685C378.298 44.6694 380.045 45.103 382.229 45.103C384.85 44.6694 387.471 43.8022 389.655 42.0677ZM374.366 36.4305C375.677 36.4305 377.424 35.9969 378.735 35.5633C380.045 35.1297 380.919 34.2624 381.356 33.3952C381.792 32.5279 382.229 31.2271 382.229 29.9262C382.229 29.0589 381.792 28.1917 381.356 27.3244C380.482 26.4572 379.608 26.0236 378.735 26.0236C377.861 26.0236 376.987 26.4572 376.55 26.8908C376.114 27.3244 375.24 28.1917 375.24 29.4926C374.803 30.3598 374.803 31.6607 374.803 32.5279C374.803 33.3952 374.803 34.2624 374.803 35.1297C374.366 35.5633 374.366 35.9969 374.366 36.4305Z" fill="#FCC46A"/>
<path fill-rule="evenodd" clip-rule="evenodd" d="M404.072 34.2624L413.246 47.7047H404.072L398.83 39.4659L391.841 47.7047H388.346L397.083 36.8641L391.404 27.758C390.531 26.8908 390.094 26.0235 389.657 25.5899C389.22 25.1563 388.346 24.7227 387.473 24.7227H397.52L399.267 27.3244L402.325 31.6606L404.072 29.4925C404.946 28.6253 405.383 27.758 405.383 26.8908C405.383 26.4572 405.383 26.0235 404.946 25.5899C404.509 25.1563 404.072 24.7227 403.636 24.7227H411.499L404.072 34.2624Z" fill="#FCC46A"/>
<path fill-rule="evenodd" clip-rule="evenodd" d="M413.683 41.1969V29.489C413.683 27.7545 412.809 26.4536 410.625 26.4536L421.546 19.082V24.7191H426.351L425.041 27.3209H421.546V40.3296C421.546 41.6305 421.983 42.9314 422.856 43.7986C423.73 44.6659 425.041 45.0995 426.351 45.0995C427.662 45.0995 428.535 45.0995 429.409 44.6659C428.972 45.9667 427.662 46.834 426.351 47.7012C425.041 48.5685 423.293 49.0021 421.109 49.0021C418.488 49.0021 416.741 48.5685 415.43 47.2676C414.557 45.0995 413.683 43.365 413.683 41.1969Z" fill="#FCC46A"/>
<path fill-rule="evenodd" clip-rule="evenodd" d="M435.086 13.879C435.96 14.7462 436.397 15.6135 436.397 16.4807C436.397 17.348 435.96 18.6488 435.086 19.0825C434.213 19.9497 433.339 19.9497 432.028 19.9497C430.718 19.9497 429.844 19.5161 428.971 19.0825C428.097 19.0825 428.097 18.2152 428.097 16.9143C428.097 15.6135 428.534 14.7462 428.971 14.3126C429.844 13.4453 430.718 13.0117 432.028 13.0117C433.339 13.0117 434.213 13.4453 435.086 13.879ZM435.96 47.7017H428.097V28.6222C428.097 26.4541 427.223 25.1532 425.039 24.7196H435.96V47.7017Z" fill="#FCC46A"/>
<path fill-rule="evenodd" clip-rule="evenodd" d="M448.19 47.7015H440.327V19.0823C440.327 16.9142 439.454 15.6133 437.27 15.1797H448.19V47.7015Z" fill="#FCC46A"/>
<path fill-rule="evenodd" clip-rule="evenodd" d="M473.964 42.0677C473.527 42.9349 473.09 43.8022 472.654 44.2358C470.469 46.8375 466.975 48.572 462.17 48.572C458.675 48.572 455.617 47.7048 453.433 45.5367C451.249 43.3685 450.375 40.7668 450.375 36.8642C450.375 32.9615 451.686 29.9262 454.307 27.7581C456.928 25.1563 459.985 24.2891 463.917 24.2891C464.791 24.2891 466.101 24.2891 466.975 24.7227C467.848 24.7227 469.159 25.1563 470.033 25.5899C470.906 26.0236 471.78 26.4572 472.217 27.3244C472.654 28.1917 473.09 29.0589 473.09 30.3598C473.09 31.6607 472.654 32.9615 471.343 34.2624C470.033 35.5633 469.159 35.9969 467.412 36.8642C465.664 37.2978 464.354 37.7314 463.043 38.165C461.733 38.5987 460.422 38.5987 458.675 39.0323C459.112 41.2004 459.549 42.9349 460.859 43.8022C462.17 45.103 463.917 45.5367 466.101 45.5367C469.596 44.6694 471.78 43.8022 473.964 42.0677ZM458.675 36.4305C459.985 36.4305 461.733 35.9969 463.043 35.5633C464.354 35.1297 465.227 34.2624 465.664 33.3952C466.101 32.5279 466.538 31.2271 466.538 29.9262C466.538 29.0589 466.101 28.1917 465.664 27.3244C465.227 26.4572 464.354 26.0236 463.48 26.0236C462.606 26.0236 461.733 26.4572 461.296 26.8908C460.859 27.3244 459.985 28.1917 459.985 29.4926C459.549 30.3598 459.549 31.6607 459.549 32.5279C459.549 33.3952 459.549 34.2624 459.549 35.1297C458.675 35.5633 458.675 35.9969 458.675 36.4305Z" fill="#FCC46A"/>
<path fill-rule="evenodd" clip-rule="evenodd" d="M188.71 92.3654L187.4 104.507H157.695V68.9497C157.695 66.7816 157.258 65.0471 156.385 64.1798C155.511 63.3126 154.2 62.4453 152.453 62.0117H186.089L185.216 74.1532C183.468 68.5161 179.974 65.4807 174.295 65.4807H168.179V79.7903H176.479C178.226 79.7903 179.537 78.9231 179.974 77.6222V86.2947C179.537 84.5602 178.226 83.6929 176.479 83.6929H168.179V101.038H176.479C179.1 101.038 181.721 100.171 183.905 98.4362C186.526 96.7017 187.837 94.5335 188.71 92.3654Z" fill="#FFF3DF"/>
<path fill-rule="evenodd" clip-rule="evenodd" d="M214.92 79.3567L231.083 104.507H217.105L207.057 88.4628L195.263 104.507H189.584L204.436 84.5602L193.952 67.6488C192.205 64.6135 190.458 62.879 188.273 62.0117H203.563C203.999 62.4453 207.057 67.2152 212.736 75.8877L216.231 71.1178C217.978 68.9497 218.852 67.2152 218.852 65.9143C218.852 64.1798 217.978 62.879 216.668 62.0117H228.025L214.92 79.3567Z" fill="#FFF3DF"/>
<path fill-rule="evenodd" clip-rule="evenodd" d="M244.625 86.2947V104.507H233.704V69.817C233.704 67.6489 233.267 66.348 232.831 65.0471C231.957 64.1799 231.083 63.7462 229.336 63.3126C237.199 62.0118 243.751 61.5781 249.867 61.5781C261.225 61.5781 266.467 65.4807 266.467 73.286C266.467 75.4541 266.03 77.1886 265.156 78.9231C264.283 80.6576 263.409 81.9585 262.099 82.8257C260.788 83.693 259.478 84.5602 257.73 84.9938C255.983 85.4275 254.236 85.8611 252.488 86.2947C250.741 86.7283 249.43 86.7283 247.683 86.7283H244.625V86.2947ZM244.625 83.693H246.373C248.994 83.693 251.178 82.8257 252.488 81.0912C253.799 79.3567 254.672 76.755 254.672 73.286C254.672 70.2506 254.236 68.0825 252.925 66.348C251.615 64.6135 250.304 63.7462 248.12 63.7462C246.809 63.7462 245.936 64.1799 245.499 64.6135C244.625 65.0471 244.625 65.9144 244.625 66.7816V83.693Z" fill="#FFF3DF"/>
<path fill-rule="evenodd" clip-rule="evenodd" d="M283.503 101.038C284.813 102.339 286.561 102.772 288.745 102.772C290.929 102.772 292.676 102.339 293.987 101.038C295.297 99.7371 296.608 98.0026 297.045 95.8345C297.481 93.6664 297.918 91.4983 298.355 89.7638C298.355 88.0293 298.792 85.8611 298.792 83.693C298.792 70.2507 295.297 63.7463 288.745 63.7463C282.192 63.7463 278.698 70.2507 278.698 83.693C278.698 85.8611 278.698 88.0293 279.134 89.7638C279.134 91.4983 279.571 93.6664 280.445 95.8345C280.882 98.0026 282.192 99.7371 283.503 101.038ZM304.908 99.3035C300.976 103.64 295.734 105.808 289.182 105.808C282.629 105.808 277.387 103.64 273.456 99.3035C269.524 94.9673 267.34 89.7638 267.34 83.2594C267.34 76.755 269.524 71.5515 273.456 67.2153C277.387 62.8791 282.629 60.7109 289.182 60.7109C295.734 60.7109 300.976 62.8791 304.908 67.2153C308.839 71.5515 311.023 76.755 311.023 83.2594C311.023 89.7638 308.839 94.9673 304.908 99.3035Z" fill="#FFF3DF"/>
<path fill-rule="evenodd" clip-rule="evenodd" d="M376.989 104.507H352.089V103.64C353.4 101.038 356.458 97.1353 360.826 91.4982C366.068 85.4275 368.252 80.224 368.252 75.4541C368.252 73.286 367.378 71.1179 366.068 69.817C364.757 68.5161 363.01 67.6489 360.389 67.6489C356.894 67.6489 353.837 68.5161 351.652 70.6843V70.2506C352.526 68.0825 354.273 65.9144 356.894 63.7463C359.515 62.0118 362.136 61.1445 365.631 61.1445C369.126 61.1445 371.747 62.0118 373.931 64.1799C376.115 65.9144 377.426 68.5161 377.426 71.9851C377.426 76.755 374.805 81.9585 369.126 87.5956L363.01 93.6664L359.952 96.7017H373.057C374.368 96.7017 376.115 96.2681 377.426 95.4008C378.736 94.5336 379.61 93.6664 380.483 91.9319L376.989 104.507Z" fill="#FFF3DF"/>
<path fill-rule="evenodd" clip-rule="evenodd" d="M398.393 102.339C400.577 102.339 401.887 101.038 402.761 98.0026C403.635 94.9672 404.072 89.7637 404.072 82.3921C404.072 76.3214 403.635 71.5515 402.761 68.5161C401.887 65.4807 400.577 64.1799 398.393 64.1799C394.461 64.1799 392.277 70.2506 392.277 82.3921C392.277 89.3301 392.714 94.1 393.587 97.5689C394.461 101.038 396.208 102.339 398.393 102.339ZM398.393 105.374C395.772 105.374 393.151 104.941 391.403 103.64C389.219 102.339 387.472 100.604 386.161 98.4362C384.851 96.2681 383.54 94.1 383.103 91.4982C382.23 88.8965 381.793 86.2947 381.793 83.693C381.793 80.224 382.23 76.3214 383.54 73.286C384.851 69.817 386.598 67.2152 389.219 65.0471C391.84 62.879 394.898 61.5781 398.393 61.5781C401.887 61.5781 404.945 62.879 407.566 65.0471C410.187 67.2152 411.935 69.817 413.245 73.286C414.556 76.755 414.992 80.224 414.992 83.693C414.992 87.5956 414.556 91.0646 413.245 94.1C411.935 97.569 410.187 100.171 407.566 102.339C404.508 104.073 401.887 105.374 398.393 105.374Z" fill="#FFF3DF"/>
<path fill-rule="evenodd" clip-rule="evenodd" d="M440.762 104.507H415.863V103.64C417.173 101.038 420.231 97.1353 424.599 91.4982C429.841 85.4275 432.026 80.224 432.026 75.4541C432.026 73.286 431.152 71.1179 429.841 69.817C428.531 68.5161 426.783 67.6489 424.162 67.6489C420.668 67.6489 417.61 68.5161 415.426 70.6843V70.2506C416.299 68.0825 418.047 65.9144 420.668 63.7463C423.289 62.0118 425.91 61.1445 429.405 61.1445C432.899 61.1445 435.52 62.0118 437.704 64.1799C439.889 65.9144 441.199 68.5161 441.199 71.9851C441.199 76.755 438.578 81.9585 432.899 87.5956L426.783 93.6664L423.726 96.7017H436.831C438.141 96.7017 439.889 96.2681 441.199 95.4008C442.51 94.5336 443.383 93.6664 444.257 91.9319L440.762 104.507Z" fill="#FFF3DF"/>
<path d="M344.224 81.0898H321.945V86.2933H344.224V81.0898Z" fill="#FFF3DF"/>
<path fill-rule="evenodd" clip-rule="evenodd" d="M27.9564 35.9942C27.9564 35.9942 55.9138 14.7466 63.34 10.844C71.203 6.94141 81.2502 6.94141 81.2502 6.94141H83.4344L94.7921 18.2156C94.7921 18.2156 82.5607 24.72 69.0189 32.5252C55.477 40.3305 39.3141 57.2418 39.3141 57.2418L27.5195 39.8969L27.9564 35.9942Z" fill="#840D10"/>
<path fill-rule="evenodd" clip-rule="evenodd" d="M6.9882 65.9132C6.9882 65.9132 8.73554 59.8425 12.2302 64.1787C15.7249 68.515 23.1511 78.9219 23.1511 78.9219L24.8984 89.3289L18.3459 95.8333L4.36719 83.6918L6.9882 65.9132Z" fill="#840D10"/>
<path fill-rule="evenodd" clip-rule="evenodd" d="M30.5771 6.9379L37.1296 1.30079C41.498 -2.60183 52.8557 2.16804 58.9713 6.50428C58.9713 6.50428 68.1449 1.73441 74.2606 1.30079C79.9394 0.43354 82.5604 1.30079 82.5604 1.30079L100.034 19.0794C100.034 19.0794 101.781 22.982 100.907 29.4864C100.471 32.0881 99.597 34.6899 98.7233 37.7252C100.034 39.4597 102.655 42.0615 104.839 44.6632C107.897 48.5658 107.897 48.5658 107.897 48.5658C110.955 41.1942 111.392 38.1589 111.392 30.3536L118.818 37.2916C118.818 37.2916 118.818 45.0968 116.634 50.734C114.449 56.3711 113.576 58.1056 113.576 58.1056C113.576 58.1056 117.07 65.9108 117.944 71.9815C118.818 78.4859 117.944 81.5213 117.944 81.5213L111.392 89.3265C111.392 85.8575 110.081 71.1143 100.907 56.8047C98.7233 53.3357 96.1023 49.8667 93.9181 47.265C93.9181 47.265 91.734 43.796 89.113 41.1942C86.4919 38.5925 79.0658 31.2209 79.0658 31.2209L68.1449 39.0261C68.1449 39.0261 69.8922 40.7606 73.8237 44.6632C77.7552 48.5658 86.4919 58.5392 86.4919 58.5392C88.6761 61.5746 91.2971 65.4772 93.9181 69.3798C101.344 82.3885 102.218 94.9636 102.218 98.4326C97.4128 102.769 86.9288 114.043 83.4341 116.211C81.2499 117.512 69.0185 116.211 65.087 114.043C60.7187 111.875 60.7187 111.875 60.7187 111.875C60.7187 111.875 53.2925 114.91 47.1768 116.211C40.6243 117.512 38.8769 117.078 38.8769 117.078L30.5771 110.14C30.5771 110.14 42.8085 111.008 54.603 104.937C66.3975 98.8663 78.1921 88.4593 78.1921 88.4593L88.2393 78.4859C88.2393 78.4859 82.9973 69.3798 80.8131 66.7781C64.2134 85.4239 40.6243 101.034 21.8404 100.167L0.872304 82.3885C0.872304 82.3885 -2.62238 76.3178 4.80382 60.2737C5.24065 59.8401 5.24065 58.9728 5.67749 58.5392C4.36698 55.5038 2.61964 51.1676 1.30914 47.265C-0.438201 40.327 1.30914 35.5571 1.30914 35.5571C1.30914 35.5571 15.2879 20.3803 18.7825 18.6458C22.2772 17.3449 29.2666 18.2121 32.7613 19.513C34.0718 19.9466 35.3823 20.8139 36.2559 21.2475L36.6928 20.8139C44.119 14.7431 48.9241 11.7078 48.9241 11.7078C42.3716 9.10603 37.5664 8.23878 30.5771 6.9379ZM16.1615 92.3619C17.472 88.4593 18.7825 84.9903 19.6562 81.0877L10.9195 70.2471C10.9195 70.2471 9.609 71.5479 8.73533 75.4505C7.86166 79.3532 6.11432 82.3885 8.73533 84.9903C10.9195 87.592 16.1615 92.3619 16.1615 92.3619ZM38.8769 50.734C38.8769 50.734 55.4767 33.389 69.4554 26.0174C83.8709 18.6458 91.734 18.2121 91.734 18.2121C91.734 18.2121 87.8024 12.575 84.3078 9.97327C80.8131 7.37153 76.8816 9.10603 72.9501 10.4069C69.4554 11.7078 63.7765 14.3095 53.7293 20.3803C39.3138 29.4864 31.4507 39.8933 31.4507 39.8933L38.8769 50.734ZM7.42483 36.4244C7.42483 36.4244 7.42483 39.0261 8.73533 43.3623C10.0458 47.6986 13.9774 55.5038 21.4035 66.7781C29.2666 78.0523 39.3138 86.7248 39.3138 86.7248L49.7978 79.3532C49.7978 79.3532 41.9348 73.2824 35.3823 64.1763C28.3929 55.0702 23.1509 46.8313 20.5299 40.7606C17.9089 34.6899 16.1615 27.3182 16.1615 27.3182C13.1037 30.3536 10.9195 32.5217 7.42483 36.4244ZM45.8663 59.4064L59.4082 72.8488L71.6396 59.4064L58.9713 46.8313L45.8663 59.4064ZM69.0186 106.671L71.2027 107.539C72.9501 108.406 79.9394 110.574 81.6868 110.14C82.9973 109.707 89.9866 103.202 91.2971 101.902C90.8603 101.902 80.8131 97.999 80.8131 97.999C76.8816 101.902 73.8237 104.503 69.0186 106.671Z" fill="#FFF3DF"/>
<path fill-rule="evenodd" clip-rule="evenodd" d="M36.6946 44.231C37.5683 44.231 38.442 43.7973 39.3157 43.7973C40.1893 43.7973 41.063 43.3637 41.9367 43.3637C41.9367 42.4965 41.9367 41.1956 42.3735 40.3283C42.3735 39.4611 42.8103 38.1602 42.8103 37.293C41.9367 37.293 41.063 37.7266 39.7525 37.7266C38.8788 37.7266 38.0051 38.1602 36.6946 38.1602C36.6946 39.0275 36.6946 40.3283 36.2578 41.1956C36.6946 42.4965 36.6946 43.3637 36.6946 44.231ZM41.063 42.0628C41.063 42.4965 40.6262 42.4965 39.7525 42.4965C38.442 42.4965 38.442 42.4965 38.442 40.762C38.442 39.8947 38.442 39.4611 38.8788 39.4611C38.8788 39.4611 39.3157 39.0275 39.7525 39.0275C41.063 39.0275 41.4998 39.0275 41.063 40.762C41.063 41.6292 41.063 41.6292 41.063 42.0628Z" fill="#EE8900"/>
<path fill-rule="evenodd" clip-rule="evenodd" d="M50.2344 31.227C51.108 31.227 51.9817 31.6606 53.2922 31.6606C54.1659 31.6606 55.4764 32.0942 56.3501 32.0942C56.7869 30.7934 56.7869 29.9261 57.2237 29.0589C57.6606 28.1916 57.6606 26.8907 58.0974 26.0235C57.2237 26.0235 55.9132 25.5899 55.0396 25.5899C54.1659 25.5899 52.8554 25.1562 51.9817 25.1562C51.5449 26.0235 51.5449 27.3244 51.108 28.1916C50.6712 29.0589 50.6712 30.3597 50.2344 31.227ZM55.0396 29.9261C55.0396 30.3597 54.6027 30.3597 53.7291 30.3597C52.4186 29.9261 51.9817 29.9261 52.4185 28.6252C52.4185 27.758 52.8554 27.3244 52.8554 27.3244C53.2922 27.3244 53.7291 27.3244 54.1659 27.3244C55.4764 27.758 55.9132 27.758 55.4764 29.4925C55.4764 29.4925 55.4764 29.9261 55.0396 29.9261Z" fill="#EE8900"/>
<path fill-rule="evenodd" clip-rule="evenodd" d="M66.3945 20.8168C67.2682 21.2505 68.5787 21.2505 69.4524 21.6841C70.326 22.1177 71.6366 22.1177 72.5102 22.5513C72.9471 21.6841 73.3839 20.8168 73.8207 19.9496C74.2576 18.6487 74.6944 17.3478 75.1312 16.4806C73.8207 16.047 72.9471 16.047 71.6365 15.6133C70.326 15.1797 69.4524 15.1797 68.1419 14.7461C67.705 15.6133 67.2682 16.9142 66.8314 17.7815C66.8314 18.6487 66.3945 19.9496 66.3945 20.8168ZM71.6365 20.3832C71.1997 20.8168 70.7629 20.3832 69.8892 20.3832C68.1419 19.9496 68.1419 19.9496 69.0155 18.2151C69.0155 17.3478 69.4524 16.9142 69.8892 16.9142C70.326 16.9142 70.7629 16.9142 71.6365 16.9142C73.3839 17.3478 73.3839 17.3478 72.5102 19.0823C72.0734 19.516 71.6365 19.9496 71.6365 20.3832Z" fill="#EE8900"/>
<path fill-rule="evenodd" clip-rule="evenodd" d="M9.60938 80.2229C9.60938 80.6565 10.9199 80.6565 12.2304 80.2229C14.4146 79.3556 14.4146 79.3556 14.8514 81.0901C15.2882 82.8246 14.8514 82.8246 13.5409 83.2582C11.7935 83.6919 11.7935 82.8246 13.5409 82.391C13.9777 82.391 14.4146 81.9574 13.9777 81.5237C13.9777 81.0901 13.1041 81.0901 12.2304 81.5237C10.483 82.391 10.483 82.391 10.9199 84.1255C11.3567 85.86 11.3567 85.86 13.9777 84.9927C14.8514 84.5591 15.7251 84.5591 16.5987 84.1255C16.5987 83.2582 16.1619 81.9574 16.1619 80.6565C15.7251 79.7893 15.7251 78.4884 15.7251 77.1875C14.4146 77.6211 13.1041 78.0548 12.2304 78.4884C10.9199 78.922 9.60938 79.7892 9.60938 80.2229Z" fill="#FCC46A"/>
<path fill-rule="evenodd" clip-rule="evenodd" d="M53.293 28.1914C53.293 28.6251 53.293 29.0587 53.7298 29.0587C54.1666 29.0587 54.1666 29.0587 54.6035 29.0587C54.6035 29.0587 54.6035 29.0587 55.0403 28.6251C55.0403 28.1914 55.0403 27.7578 54.6035 27.7578C54.1666 27.7578 54.1666 27.7578 53.293 28.1914C53.7298 28.1914 53.7298 27.7578 53.293 28.1914Z" fill="#FCC46A"/>
<path fill-rule="evenodd" clip-rule="evenodd" d="M44.1195 31.6563C44.1195 32.0899 44.9932 32.5236 46.3037 32.5236C48.4879 32.9572 48.4879 32.9572 48.051 34.2581C47.6142 35.9926 47.6142 35.9926 45.8668 35.5589C44.1195 35.5589 44.5563 34.2581 46.3037 34.6917C46.7405 34.6917 47.1774 34.2581 47.1774 33.8244C47.1774 33.3908 46.3037 32.9572 45.43 32.9572C43.6827 32.9572 43.6827 32.9572 43.2458 34.6917C42.809 36.4262 42.809 36.4262 45.8668 36.8598C46.7405 36.8598 47.6142 36.8598 48.9247 37.2934C49.3615 36.4262 49.3615 35.1253 49.7984 34.2581C50.2352 33.3908 50.2352 32.0899 50.672 31.2227C49.7984 31.2227 48.9247 31.2227 47.6142 30.7891C45.43 30.7891 44.1195 31.2227 44.1195 31.6563Z" fill="#FCC46A"/>
<path fill-rule="evenodd" clip-rule="evenodd" d="M69.8919 18.2149C69.455 18.6485 69.8919 19.0821 70.3287 19.0821C70.7655 19.0821 70.7655 19.0821 71.2024 19.0821C71.2024 19.0821 71.2024 19.0821 71.6392 18.6485C72.076 18.2149 71.6392 17.7812 71.2024 17.7812C70.7655 17.7812 70.7655 17.7812 69.8919 18.2149Z" fill="#FCC46A"/>
<path fill-rule="evenodd" clip-rule="evenodd" d="M59.4079 20.3828C59.4079 20.8165 60.2816 21.2501 61.5921 21.6837C64.2131 22.1173 64.2131 22.1173 63.3394 23.8518C62.9026 25.5863 62.4657 25.5863 61.1552 25.1527C59.4079 24.7191 59.8447 23.8518 61.5921 24.2855C62.0289 24.2855 62.4657 24.2855 62.4657 23.8518C62.4657 23.4182 61.5921 22.9846 60.7184 22.9846C58.9711 22.9846 58.9711 22.9846 58.0974 24.7191C57.6606 26.4536 57.6606 26.4536 60.7184 26.8872C61.5921 27.3208 62.9026 27.3208 63.7763 27.7545C64.2131 26.8872 64.6499 25.5863 64.6499 24.7191C65.0868 22.9846 65.5236 21.6837 65.9604 20.8165C65.0868 20.3828 63.7762 20.3828 62.9026 19.9492C61.1552 19.9492 59.4079 19.9492 59.4079 20.3828Z" fill="#FCC46A"/>
<path fill-rule="evenodd" clip-rule="evenodd" d="M77.3164 11.277C76.8796 11.7106 78.1901 12.1443 79.5006 12.5779C82.1216 13.4451 82.1216 13.4451 81.2479 14.746C80.3742 16.0469 80.3742 16.0469 78.6269 15.6133C76.8796 15.1796 77.3164 14.3124 79.0637 14.746C79.9374 14.746 80.3742 14.746 80.3742 14.3124C80.3742 13.8788 79.5006 13.4451 78.6269 13.0115C76.8796 13.0115 76.4427 13.0115 75.5691 14.746C74.6954 16.4805 74.6954 16.4805 77.7532 17.3478C78.6269 17.7814 79.9374 18.215 80.8111 18.215C81.6847 17.3478 82.5584 16.4805 82.9953 15.6133C83.4321 14.746 83.8689 13.8788 84.7426 13.0115C83.4321 12.5779 82.5584 12.1443 81.2479 11.7106C79.5006 10.8434 77.7532 10.8434 77.3164 11.277Z" fill="#FCC46A"/>
<path fill-rule="evenodd" clip-rule="evenodd" d="M38.8789 40.7618C38.8789 41.1954 38.8789 41.629 39.3157 41.629C39.7526 41.629 39.7526 41.629 40.1894 41.1954C40.1894 41.1954 40.1894 41.1954 40.1894 40.7618C40.1894 40.3282 40.1894 39.8945 39.7526 39.8945C39.7526 39.8945 39.3157 39.8945 39.3157 40.3282L38.8789 40.7618Z" fill="#FCC46A"/>
<path d="M461.531 104.337C456.505 104.337 452.566 102.775 449.716 99.6512C446.866 96.4746 445.441 92.1333 445.441 86.6272C445.441 81.1211 446.581 76.4092 448.861 72.4914C451.141 68.5736 454.121 65.5294 457.8 63.3587C461.479 61.1881 465.495 59.838 469.848 59.3086V63.9941C465.391 64.947 461.764 66.8794 458.966 69.7913C456.22 72.6502 454.613 75.9327 454.147 79.6387L454.38 79.7975C458.525 77.5739 460.831 76.4621 461.298 76.4621C465.858 76.4621 469.096 77.7328 471.014 80.274C472.983 82.7624 473.967 85.886 473.967 89.6449C473.967 90.5979 473.863 91.7627 473.656 93.1392C473.501 94.5157 473.319 95.5481 473.112 96.2364C471.92 97.9305 470.029 99.7041 467.438 101.557C464.899 103.41 462.93 104.337 461.531 104.337ZM462.619 99.3335C464.484 99.3335 465.417 96.051 465.417 89.4861C465.417 86.5742 465.003 84.5889 464.174 83.53C463.344 82.4712 462.101 81.9417 460.443 81.9417C460.132 81.9417 459.251 82.1535 457.8 82.5771C456.349 83.0006 455.08 83.4241 453.991 83.8477C453.94 84.8536 453.914 86.2301 453.914 87.9772C453.914 91.948 454.51 94.8334 455.701 96.6334C456.893 98.4335 459.199 99.3335 462.619 99.3335Z" fill="#FFF3DF"/>
</g>
<defs>
<clipPath id="clip0_93_253">
<rect width="473.966" height="117.512" fill="white"/>
</clipPath>
</defs>
</svg>
